<!--?xml version="1.0" encoding="iso-8859-1"?-->
<!-- Generator: Adobe Illustrator 16.0.0, SVG Export Plug-In . SVG Version: 6.00 Build 0)  -->

<svg version="1.1" xmlns="http://www.w3.org/2000/svg" xmlns:xlink="http://www.w3.org/1999/xlink" x="0px" y="0px" width="1000px" height="1000px" viewBox="0 0 300 300" style="" xml:space="preserve">
<g id="圖層_1">
	<path style="fill:none;stroke:#000000;stroke-miterlimit:10;" d="M93.486,73.323c1.504,0,2.676,0.186,3.516,0.557
		c0.781,0.371,1.172,0.918,1.172,1.641c0,0.567-0.283,0.85-0.85,0.85c-0.508,0-1.143-0.088-1.904-0.264
		c-0.84-0.215-1.758-0.322-2.754-0.322h-1.055c0.293,0.43,0.439,0.889,0.439,1.377c0,0.45-0.127,0.996-0.381,1.641
		c-0.078,0.215-0.176,0.42-0.293,0.615c2.285-0.839,3.877-1.279,4.775-1.318c1.27,0,1.904,0.557,1.904,1.67
		c-0.02,1.016-0.693,2.656-2.021,4.922c0.078,0.176,0.117,0.371,0.117,0.586c0,0.391-0.342,0.703-1.025,0.938
		c-0.938,0.45-1.895,0.811-2.871,1.084c-0.078,0.02-0.146,0.04-0.205,0.059c0.391,0.391,0.586,0.772,0.586,1.143
		c0,0.801-0.371,2.109-1.113,3.926c1.308-0.156,2.607-0.234,3.896-0.234c1.855,0,3.212,0.234,4.072,0.703
		c0.957,0.527,1.445,1.348,1.465,2.461c-0.04,0.625-0.303,0.938-0.791,0.938c-4.434-1.172-7.549-1.758-9.346-1.758
		c-2.051,0.039-3.896,0.224-5.537,0.557c-1.523,0.332-3.018,0.781-4.482,1.348c-0.547,0.234-1.084,0.371-1.611,0.41
		c-0.82-0.04-1.504-0.205-2.051-0.498c-0.508-0.313-0.762-0.576-0.762-0.791c2.617-0.684,5.02-1.26,7.207-1.729
		c0.234-2.344,0.391-4.033,0.469-5.068c-0.059,0.078-0.117,0.127-0.176,0.146c-1.915,0.371-2.949,0.605-3.105,0.703
		c-0.234,0.157-0.41,0.234-0.527,0.234c-0.567-0.059-0.879-0.332-0.938-0.82c0-0.352,0.107-0.82,0.322-1.406
		c0.136-0.684,0.205-1.357,0.205-2.021c0-0.684-0.274-1.523-0.82-2.52c-0.215-0.253-0.322-0.458-0.322-0.615
		c0-0.41,0.127-0.615,0.381-0.615c0.312,0,0.781,0.283,1.406,0.85c1.601-0.781,2.773-1.328,3.516-1.641l0.908-3.633
		c0-0.273-0.049-0.527-0.146-0.762c-0.215,0.02-0.43,0.029-0.645,0.029c-0.743-0.039-1.465-0.234-2.168-0.586
		c-0.547-0.253-0.85-0.488-0.908-0.703c0-0.195,0.234-0.303,0.703-0.322c3.105-0.215,5.576-0.605,7.412-1.172
		C90.596,73.518,92.041,73.323,93.486,73.323z" class="GaOkwpWI_0"></path>
	<path style="fill:none;stroke:#000000;stroke-miterlimit:10;" d="M85.254,93.45c1.113-0.215,2.158-0.41,3.135-0.586
		c0.234-0.039,0.469-0.078,0.703-0.117c0.391-1.542,0.586-2.685,0.586-3.428c0-0.839-0.42-1.729-1.26-2.666
		c0-0.293,0.205-0.439,0.615-0.439s0.83,0.059,1.26,0.176c1.348-0.801,2.392-1.387,3.135-1.758l1.699-3.574
		c0-0.176-0.049-0.264-0.146-0.264c-2.208,0.41-3.682,0.615-4.424,0.615c-1.094-0.059-1.729-0.341-1.904-0.85
		c0-0.098,0.136-0.195,0.41-0.293c0.156-0.449,0.303-0.986,0.439-1.611c0.136-0.645,0.205-1.182,0.205-1.611
		c0-0.352-0.137-0.722-0.41-1.113c-0.86,0.117-1.641,0.245-2.344,0.381c-0.234,0.059-0.469,0.107-0.703,0.146
		c0.078,0.04,0.127,0.069,0.146,0.088c0.41,0.352,0.615,0.831,0.615,1.436c0,0.743-0.4,1.709-1.201,2.9
		c0.176,0.195,0.264,0.41,0.264,0.645c0,0.333-0.264,0.605-0.791,0.82c-0.996,0.45-2.002,0.811-3.018,1.084
		c-0.333,0.117-0.625,0.195-0.879,0.234c0.527,0.801,0.791,1.768,0.791,2.9c0,0.215,0.078,0.322,0.234,0.322
		c0.527-0.156,0.947-0.283,1.26-0.381c-0.098-0.117-0.157-0.215-0.176-0.293c0-0.391,0.244-0.596,0.732-0.615
		c0.527,0,1.074,0.186,1.641,0.557c0.546,0.333,0.82,0.82,0.82,1.465C86.689,88.147,86.21,90.091,85.254,93.45z" class="GaOkwpWI_1"></path>
	<path style="fill:none;stroke:#000000;stroke-miterlimit:10;" d="M111.035,75.872c0.703,0.04,1.055,0.703,1.055,1.992
		c0,0.996-0.157,2.471-0.469,4.424c2.09-1.601,3.574-2.402,4.453-2.402c0.605,0,0.918,0.186,0.938,0.557
		c0,1.973-1.934,3.359-5.801,4.16c-0.274,2.032-0.41,4.326-0.41,6.885c0,0.215,0.117,0.322,0.352,0.322
		c0.059,0,0.439-0.458,1.143-1.377c0.918-1.172,1.601-2.354,2.051-3.545c0.136,0,0.205,0.127,0.205,0.381
		c-0.02,0.45-0.157,1.113-0.41,1.992c-0.508,1.739-1.26,3.321-2.256,4.746c-0.762,1.035-1.27,1.553-1.523,1.553
		c-0.313,0-0.684-0.342-1.113-1.025c-0.371-0.567-0.557-1.191-0.557-1.875c0.059-0.391,0.127-0.908,0.205-1.553
		c0.078-0.82,0.146-2.969,0.205-6.445c0.078-2.52,0.42-5.137,1.025-7.852C110.283,76.243,110.585,75.93,111.035,75.872z" class="GaOkwpWI_2"></path>
	<path style="fill:none;stroke:#000000;stroke-miterlimit:10;" d="M121.611,74.348c0.938,0.04,1.406,0.547,1.406,1.523
		c0,0.743-0.107,2.168-0.322,4.277c2.89-1.289,4.902-1.934,6.035-1.934c0.605,0,0.918,0.205,0.938,0.615
		c0,1.523-2.402,2.568-7.207,3.135c-0.059,0.625-0.127,1.27-0.205,1.934c-0.43,3.731-0.645,5.899-0.645,6.504
		c0,0.195,0.273,0.333,0.82,0.41c0.898,0.04,2.656,0.059,5.273,0.059c0.938,0.059,1.406,0.538,1.406,1.436
		c0,0.215-0.157,0.45-0.469,0.703c-0.41,0.391-1.26,0.957-2.549,1.699c-0.195,0.117-0.362,0.176-0.498,0.176
		c-0.234,0-0.352-0.088-0.352-0.264c0-0.04,0.322-0.225,0.967-0.557c0.215-0.117,0.322-0.195,0.322-0.234
		c0-0.254-0.322-0.4-0.967-0.439c-2.832-0.098-4.561-0.361-5.186-0.791c-0.527-0.371-0.831-0.986-0.908-1.846
		c0-1.621,0.224-4.062,0.674-7.324c0.488-3.886,0.732-6.24,0.732-7.061c0-0.332-0.107-0.498-0.322-0.498
		c-0.078,0-0.195,0.127-0.352,0.381c-0.098,0-0.146-0.078-0.146-0.234c0-0.176,0.117-0.469,0.352-0.879
		C120.742,74.67,121.143,74.407,121.611,74.348z" class="GaOkwpWI_3"></path>
	<path style="fill:none;stroke:#000000;stroke-miterlimit:10;" d="M138.691,79.622c0.352,0,0.684,0.254,0.996,0.762
		c0.449,0.625,0.674,1.279,0.674,1.963c0,0.274-0.166,0.772-0.498,1.494c-0.605,1.856-0.908,4.083-0.908,6.68
		c0,0.567,0.078,0.85,0.234,0.85c0.234,0,0.469-0.215,0.703-0.645l2.549-5.801c0.176,0,0.264,0.04,0.264,0.117
		c-0.567,2.422-1.191,4.668-1.875,6.738c-0.293,0.918-0.547,1.885-0.762,2.9c-0.176,0.918-0.547,1.377-1.113,1.377
		c-0.567,0-1.036-0.42-1.406-1.26c-0.333-0.84-0.498-1.982-0.498-3.428c0-1.542,0.312-3.604,0.938-6.182
		c0.391-1.934,0.586-3.271,0.586-4.014c0-0.293-0.04-0.722-0.117-1.289C138.457,79.709,138.535,79.622,138.691,79.622z" class="GaOkwpWI_4"></path>
	<path style="fill:none;stroke:#000000;stroke-miterlimit:10;" d="M140.713,73.411c0.82,0,1.601,0.215,2.344,0.645
		c0.625,0.43,0.938,0.85,0.938,1.26c0,0.547-0.274,0.82-0.82,0.82c-0.527,0-1.113-0.234-1.758-0.703
		c-0.781-0.586-1.172-1.132-1.172-1.641C140.244,73.538,140.4,73.411,140.713,73.411z" class="GaOkwpWI_5"></path>
	<path style="fill:none;stroke:#000000;stroke-miterlimit:10;" d="M155.127,78.333c0.762,0,1.143,0.274,1.143,0.82
		c0,0.879-0.791,1.543-2.373,1.992c-0.313,0.059-0.596,0.117-0.85,0.176c-0.156,0.938-0.342,1.915-0.557,2.93
		c0.762-0.293,1.563-0.634,2.402-1.025c0.684-0.352,1.191-0.527,1.523-0.527c0.352,0,0.732,0.078,1.143,0.234
		c0.41,0.215,0.615,0.488,0.615,0.82c0,0.333-0.117,0.518-0.352,0.557c-1.328,0.293-2.559,0.615-3.691,0.967
		c-0.137,0.743-0.498,1.631-1.084,2.666c-0.41,0.801-1.279,1.915-2.607,3.34c1.25-0.488,2.158-0.85,2.725-1.084
		c0.488-0.215,0.898-0.332,1.23-0.352c-0.254-0.469-0.4-0.82-0.439-1.055c0-0.078,0.039-0.117,0.117-0.117
		c0.977,0,2.012,0.391,3.105,1.172c0.898,0.684,1.367,1.631,1.406,2.842c-0.02,1.289-0.361,1.934-1.025,1.934
		c-0.488,0-1.025-0.098-1.611-0.293c-0.527-0.195-0.801-0.362-0.82-0.498c0-0.117,0.195-0.274,0.586-0.469
		c0.352-0.176,0.527-0.4,0.527-0.674c0-0.215-0.244-0.634-0.732-1.26c-0.156,0.137-0.332,0.264-0.527,0.381
		c-5.02,1.875-7.705,2.813-8.057,2.813c-0.567,0-0.85-0.342-0.85-1.025c0-0.625,0.527-1.328,1.582-2.109
		c2.597-2.207,4.463-4.189,5.596-5.947c-1.523,0.527-2.891,1.113-4.102,1.758c-2.227,1.113-3.721,1.689-4.482,1.729
		c-0.45-0.039-0.791-0.234-1.025-0.586c-0.234-0.273-0.362-0.546-0.381-0.82c0-0.215,0.176-0.352,0.527-0.41
		c1.465-0.195,3.838-0.957,7.119-2.285l0.205-3.252c-0.723,0.117-1.27,0.176-1.641,0.176c-0.45,0-0.869-0.107-1.26-0.322
		c-0.371-0.273-0.567-0.479-0.586-0.615c0-0.234,0.234-0.381,0.703-0.439c0.703-0.136,1.68-0.517,2.93-1.143l0.352-5.303
		c0-0.391-0.166-0.781-0.498-1.172c0-0.176,0.244-0.293,0.732-0.352c0.391,0,0.801,0.176,1.23,0.527
		c0.41,0.391,0.615,0.908,0.615,1.553c0,1.133-0.088,2.451-0.264,3.955C153.955,78.401,154.521,78.333,155.127,78.333z" class="GaOkwpWI_6"></path>
	<path style="fill:none;stroke:#000000;stroke-miterlimit:10;" d="M174.785,82.346c1.016,0,1.523,0.342,1.523,1.025
		c0,0.879-0.557,1.553-1.67,2.021l-0.146,3.428c0.664-0.391,1.357-0.791,2.08-1.201c0.078,0,0.117,0.04,0.117,0.117
		c0,0.41-0.361,0.986-1.084,1.729c-1.113,1.23-2.91,2.676-5.391,4.336c-1.211,0.801-1.982,1.201-2.314,1.201
		c-0.703,0-1.094-0.635-1.172-1.904c0-0.41,0.146-0.634,0.439-0.674c0.566-0.039,1.104-0.176,1.611-0.41
		c0.703-0.352,1.924-1.015,3.662-1.992l-0.088-3.955c-0.449,0.098-0.811,0.146-1.084,0.146c-0.566,0-1.123-0.156-1.67-0.469
		c-0.469-0.312-0.732-0.546-0.791-0.703c0-0.273,0.195-0.439,0.586-0.498c0.605-0.156,1.445-0.586,2.52-1.289
		C172.695,82.649,173.652,82.346,174.785,82.346z" class="GaOkwpWI_7"></path>
	<path style="fill:none;stroke:#000000;stroke-miterlimit:10;" d="M182.168,76.018c1.348,0.02,2.021,0.488,2.021,1.406
		c-0.039,0.45-0.322,0.674-0.85,0.674c-1.289,0-2.568,0.098-3.838,0.293l0.029,0.059c1.484,4.648,3.721,9.141,6.709,13.477
		c0.762,1.191,1.328,1.787,1.699,1.787c0.117,0,0.244-0.157,0.381-0.469c0.117-0.234,0.254-1.113,0.41-2.637
		c0.059-0.136,0.107-0.205,0.146-0.205c0.137,0,0.313,0.186,0.527,0.557c0.508,1.016,0.762,2.149,0.762,3.398
		c0,0.996-0.117,1.748-0.352,2.256c-0.234,0.488-0.547,0.732-0.938,0.732c-0.605,0-1.406-0.488-2.402-1.465
		c-1.387-1.367-2.891-3.789-4.512-7.266c-1.328-2.832-2.627-6.142-3.896-9.932c-1.348,0.293-2.646,0.703-3.896,1.23
		c-1.504,0.625-2.813,0.957-3.926,0.996c-0.469,0-0.879-0.098-1.23-0.293c-0.332-0.117-0.518-0.244-0.557-0.381
		c0-0.176,0.146-0.264,0.439-0.264c1.348,0,3.34-0.645,5.977-1.934c0.938-0.41,1.816-0.762,2.637-1.055
		c-0.391-1.27-0.791-2.578-1.201-3.926c-0.137-0.488-0.42-0.83-0.85-1.025c-0.371-0.078-0.557-0.166-0.557-0.264
		c0.137-0.293,0.381-0.439,0.732-0.439c0.527,0,1.094,0.146,1.699,0.439c0.723,0.333,1.084,0.801,1.084,1.406
		c0,0.762,0.195,1.885,0.586,3.369C180.176,76.213,181.23,76.038,182.168,76.018z" class="GaOkwpWI_8"></path>
	<path style="fill:none;stroke:#000000;stroke-miterlimit:10;" d="M184.98,72.122c0.801,0,1.494,0.293,2.08,0.879
		c0.586,0.625,0.889,1.299,0.908,2.021c0,0.977-0.254,1.465-0.762,1.465c-0.352,0-0.85-0.186-1.494-0.557
		c-0.625-0.253-0.947-0.458-0.967-0.615c0-0.059,0.107-0.136,0.322-0.234c0.137-0.098,0.205-0.273,0.205-0.527
		c0-0.215-0.117-0.586-0.352-1.113c-0.195-0.352-0.293-0.664-0.293-0.938C184.629,72.268,184.746,72.141,184.98,72.122z" class="GaOkwpWI_9"></path>
	<path style="fill:none;stroke:#000000;stroke-miterlimit:10;" d="M205.635,74.231c0.703,0,1.055,0.245,1.055,0.732
		c0,0.86-0.654,1.514-1.963,1.963c-0.059,0.02-0.107,0.04-0.146,0.059c-0.352,0.137-0.713,0.254-1.084,0.352
		c-0.039,0.02-0.068,0.029-0.088,0.029c-0.039,0.703-0.088,1.465-0.146,2.285c0.273-0.332,0.518-0.664,0.732-0.996
		c0.371-0.605,0.557-1.113,0.557-1.523c0-0.059,0.01-0.107,0.029-0.146c0.02-0.039,0.049-0.059,0.088-0.059h0.059
		c0.293,0.02,0.566,0.137,0.82,0.352c0.273,0.215,0.41,0.45,0.41,0.703c0,0.215-0.107,0.45-0.322,0.703
		c-0.078,0.059-0.137,0.107-0.176,0.146c0.117,0.059,0.215,0.107,0.293,0.146c0.547,0.313,0.82,0.693,0.82,1.143
		c0,0.45-0.088,0.674-0.264,0.674c-0.313,0-0.732-0.205-1.26-0.615c-0.254-0.215-0.41-0.429-0.469-0.645
		c-0.391,0.293-0.752,0.508-1.084,0.645c-0.117,0.059-0.205,0.098-0.264,0.117c-0.02,0.137-0.029,0.264-0.029,0.381
		c-0.02,0.234-0.049,0.439-0.088,0.615h0.146c0.977,0,1.768,0.04,2.373,0.117c0.547,0.098,1.025,0.274,1.436,0.527
		c0.371,0.254,0.557,0.469,0.557,0.645c-0.059,0.703-0.293,1.055-0.703,1.055c-0.215,0-0.469-0.146-0.762-0.439
		c-0.43-0.41-0.82-0.684-1.172-0.82c-0.371-0.215-1.025-0.42-1.963-0.615c-0.117,0.762-0.283,1.358-0.498,1.787
		c-0.156,0.293-0.303,0.439-0.439,0.439c-0.215,0-0.361-0.156-0.439-0.469c-0.059-0.156-0.098-0.566-0.117-1.23
		c-1.738,2.168-3.574,3.838-5.508,5.01c-0.957,0.586-1.66,0.879-2.109,0.879h-0.146c1.836-1.367,3.398-2.852,4.688-4.453
		c0.508-0.586,1.006-1.25,1.494-1.992c-0.332-0.098-0.723-0.293-1.172-0.586c-0.234-0.215-0.391-0.391-0.469-0.527
		c-1.113,1.289-1.777,2.09-1.992,2.402c-0.098,0.157-0.166,0.234-0.205,0.234c-0.508-0.039-0.771-0.546-0.791-1.523
		c0-0.156,0.127-0.352,0.381-0.586c0.605-0.527,1.436-1.425,2.49-2.695c0.098-0.098,0.176-0.186,0.234-0.264
		c-0.293,0.02-0.547,0.029-0.762,0.029c-0.41,0-0.781-0.098-1.113-0.293c-0.332-0.234-0.518-0.4-0.557-0.498
		c0-0.312,0.322-0.508,0.967-0.586c0.938-0.156,2.275-0.654,4.014-1.494c0.137-0.078,0.283-0.156,0.439-0.234v-1.084
		c0-0.488-0.127-1.279-0.381-2.373c0-0.136,0.205-0.205,0.615-0.205c0.605,0,1.074,0.225,1.406,0.674
		c0.273,0.43,0.42,1.065,0.439,1.904v0.381C204.18,74.29,204.893,74.231,205.635,74.231z" class="GaOkwpWI_10"></path>
	<path style="fill:none;stroke:#000000;stroke-miterlimit:10;" d="M200.918,85.042c0.645,0.02,0.996,0.215,1.055,0.586
		c0.352-0.215,0.713-0.41,1.084-0.586c0.391-0.253,0.703-0.381,0.938-0.381c0.176,0,0.439,0.137,0.791,0.41
		c0.332,0.274,0.498,0.527,0.498,0.762c0,0.527-0.469,1.592-1.406,3.193c-0.137,0.195-0.254,0.391-0.352,0.586
		c4.668,2.325,8.008,3.73,10.02,4.219c2.715,0.546,4.619,1.035,5.713,1.465c0.977,0.312,1.465,0.645,1.465,0.996
		c0,0.527-0.576,0.791-1.729,0.791c-2.188,0-4.053-0.225-5.596-0.674c-2.266-0.508-4.404-1.455-6.416-2.842
		c-1.523-1.035-2.91-1.953-4.16-2.754c-1.133,1.758-2.188,3.018-3.164,3.779c-1.035,0.801-1.934,1.201-2.695,1.201
		c-0.313,0-0.469-0.04-0.469-0.117c1.23-0.567,2.656-2.07,4.277-4.512c0.273-0.429,0.508-0.82,0.703-1.172
		c-0.605-0.371-1.191-0.713-1.758-1.025c-1.289,1.66-2.051,2.695-2.285,3.105c-0.117,0.234-0.205,0.352-0.264,0.352
		c-0.43-0.039-0.654-0.508-0.674-1.406c0-0.253,0.156-0.527,0.469-0.82c0.684-0.722,1.641-1.934,2.871-3.633
		c0.469-0.605,0.723-1.035,0.762-1.289C200.635,85.12,200.742,85.042,200.918,85.042z" class="GaOkwpWI_11"></path>
	<path style="fill:none;stroke:#000000;stroke-miterlimit:10;" d="M200.625,80.735c0.273-0.429,0.547-0.869,0.82-1.318v-1.67
		c-0.41,0.059-0.771,0.117-1.084,0.176v0.059c0,0.215-0.176,0.518-0.527,0.908c-0.254,0.274-0.479,0.527-0.674,0.762
		c0.195,0.078,0.361,0.146,0.498,0.205C200.186,80.13,200.508,80.423,200.625,80.735z" class="GaOkwpWI_12"></path>
	<path style="fill:none;stroke:#000000;stroke-miterlimit:10;" d="M200.449,88.03c0.547,0.313,1.084,0.596,1.611,0.85
		c0.43-0.918,0.645-1.689,0.645-2.314c0-0.078-0.088-0.117-0.264-0.117c-0.41,0.137-0.713,0.205-0.908,0.205
		c-0.039,0.059-0.078,0.117-0.117,0.176C201.045,87.297,200.723,87.698,200.449,88.03z" class="GaOkwpWI_13"></path>
	<path style="fill:none;stroke:#000000;stroke-miterlimit:10;" d="M216.152,76.37c0.859,0,1.572,0.157,2.139,0.469
		c0.547,0.313,0.82,0.625,0.82,0.938c0,0.43-0.43,0.655-1.289,0.674c-1.172,0.098-2.324,0.274-3.457,0.527
		c-0.371,0.82-0.879,1.651-1.523,2.49c-0.234,0.293-0.449,0.538-0.645,0.732c0.43-0.156,0.859-0.312,1.289-0.469
		c2.012-0.781,3.76-1.172,5.244-1.172c1.641,0,2.461,0.898,2.461,2.695c0,1.309-0.225,2.715-0.674,4.219
		c-0.664,1.777-1.338,2.979-2.021,3.604c-0.313,0.352-0.625,0.527-0.938,0.527c-0.332,0-0.684-0.449-1.055-1.348
		c-1.348,0.117-2.715,0.215-4.102,0.293c-1.094,0.059-1.914,0.088-2.461,0.088c-0.527,0-0.791-0.146-0.791-0.439
		c0-0.059,0.078-0.117,0.234-0.176c-0.059-0.098-0.107-0.176-0.146-0.234c-0.176-0.371-0.361-1.211-0.557-2.52
		c-0.078-0.41-0.244-0.81-0.498-1.201c-0.137-0.234-0.205-0.429-0.205-0.586c0-0.136,0.078-0.205,0.234-0.205
		c0.254,0,0.469,0.04,0.645,0.117c0.391,0.215,0.693,0.703,0.908,1.465c0.273,0.938,0.42,1.729,0.439,2.373
		c0,0.215-0.01,0.41-0.029,0.586c1.836-0.41,3.281-0.713,4.336-0.908c0-0.195,0-0.42,0-0.674c-0.059,0.02-0.117,0.04-0.176,0.059
		c-0.605,0.176-1.006,0.264-1.201,0.264c-0.098,0-0.176-0.01-0.234-0.029v0.029c0,0.371-0.127,0.557-0.381,0.557
		c-0.313,0-0.664-0.156-1.055-0.469c-0.391-0.273-0.586-0.537-0.586-0.791c0.059-0.312,0.107-0.986,0.146-2.021
		c0.039-0.703,0.107-1.308,0.205-1.816c-0.801,0.195-1.455,0.293-1.963,0.293c-0.645-0.039-0.967-0.186-0.967-0.439
		c0-0.293,0.303-0.498,0.908-0.615c0.254-0.078,0.566-0.176,0.938-0.293c0.059-0.039,0.098-0.068,0.117-0.088
		c0.391-0.273,0.801-0.762,1.23-1.465c0.313-0.508,0.645-1.172,0.996-1.992c-0.508,0.137-1.025,0.303-1.553,0.498
		c-0.84,0.293-1.475,0.439-1.904,0.439c-0.469,0-0.713-0.117-0.732-0.352c0-0.039,0.098-0.107,0.293-0.205
		C213.359,77.512,215.879,76.37,216.152,76.37z" class="GaOkwpWI_14"></path>
	<path style="fill:none;stroke:#000000;stroke-miterlimit:10;" d="M212.373,85.569c0.215-0.059,0.42-0.127,0.615-0.205
		c0.352-0.136,0.791-0.205,1.318-0.205c0.098,0,0.166,0.01,0.205,0.029v-0.879c0-0.273-0.068-0.693-0.205-1.26
		c-0.82,0.333-1.553,0.576-2.197,0.732c0.039,0.137,0.059,0.274,0.059,0.41c0,0.137,0.059,0.4,0.176,0.791
		C212.363,85.159,212.373,85.354,212.373,85.569z" class="GaOkwpWI_15"></path>
	<path style="fill:none;stroke:#000000;stroke-miterlimit:10;" d="M212.637,87.62c0.117-0.059,0.254-0.127,0.41-0.205
		c0.293-0.195,0.674-0.293,1.143-0.293c0.137,0,0.244,0.01,0.322,0.029v-0.967c-0.078,0.04-0.137,0.059-0.176,0.059
		c-0.723,0.137-1.201,0.205-1.436,0.205c-0.156,0-0.322-0.019-0.498-0.059v0.205C212.402,86.927,212.48,87.268,212.637,87.62z" class="GaOkwpWI_16"></path>
	<path style="fill:none;stroke:#000000;stroke-miterlimit:10;" d="M215.596,88.704c0.664-0.098,1.094-0.146,1.289-0.146
		c0.098,0,0.195,0.01,0.293,0.029c0.059-0.098,0.107-0.176,0.146-0.234c0.449-0.566,0.84-1.601,1.172-3.105
		c0.332-1.328,0.498-2.295,0.498-2.9c0-0.253-0.166-0.381-0.498-0.381c-0.586,0-1.563,0.225-2.93,0.674
		c0.078,0.078,0.146,0.157,0.205,0.234c0.234,0.313,0.361,0.791,0.381,1.436c0,0.879-0.107,2.09-0.322,3.633
		C215.771,88.235,215.693,88.489,215.596,88.704z" class="GaOkwpWI_17"></path>
	<path style="fill:none;stroke:#000000;stroke-miterlimit:10;" d="M235.283,71.096c0.352,0,0.85,0.245,1.494,0.732
		c0.645,0.508,0.967,1.124,0.967,1.846c0,1.094-0.938,2.618-2.813,4.57c-0.098,0.098-0.176,0.195-0.234,0.293
		c0.801-0.332,1.748-0.713,2.842-1.143c2.227-0.918,4.16-1.377,5.801-1.377s2.461,0.898,2.461,2.695
		c0,1.309-0.332,2.715-0.996,4.219c-0.918,1.797-1.865,3.018-2.842,3.662c-0.469,0.352-0.898,0.527-1.289,0.527
		c-0.352,0-0.713-0.449-1.084-1.348c-0.215-0.488-0.322-0.81-0.322-0.967c0-0.176,0.156-0.264,0.469-0.264
		c0.469,0,0.898-0.215,1.289-0.645c0.684-0.605,1.299-1.67,1.846-3.193c0.469-1.328,0.703-2.304,0.703-2.93
		c0-0.234-0.146-0.352-0.439-0.352c-0.84,0-2.344,0.42-4.512,1.26c-2.598,1.113-4.531,1.67-5.801,1.67h-0.029
		c-1.582,1.406-3.418,2.803-5.508,4.189c-0.156,0-0.234-0.039-0.234-0.117c3.027-3.3,5.283-6.25,6.768-8.848
		c0.977-1.582,1.465-2.852,1.465-3.809c0-0.195-0.039-0.341-0.117-0.439C235.166,71.174,235.205,71.096,235.283,71.096z" class="GaOkwpWI_18"></path>
	<path style="fill:none;stroke:#000000;stroke-miterlimit:10;" d="M236.924,81.731c0.566,0,0.996,0.107,1.289,0.322
		c0.215,0.254,0.322,0.615,0.322,1.084c0,0.879-0.898,2.041-2.695,3.486l0.352-0.059c0.547,0,0.938,0.049,1.172,0.146
		c0.254,0.137,0.381,0.362,0.381,0.674c-0.039,0.567-0.498,1.006-1.377,1.318c-1.035,0.352-1.992,0.527-2.871,0.527
		c-0.293,0-0.518-0.029-0.674-0.088c-0.02,0.254-0.039,0.498-0.059,0.732c-0.039,0.86-0.059,1.67-0.059,2.432
		c0,0.918,0.586,1.572,1.758,1.963c1.133,0.488,3.545,0.732,7.236,0.732c2.539,0,4.277-0.381,5.215-1.143
		c0.84-0.508,1.406-1.65,1.699-3.428c0.039-0.391,0.127-0.586,0.264-0.586c0.215,0,0.547,0.313,0.996,0.938
		c0.43,0.664,0.645,1.338,0.645,2.021c0,1.094-0.566,1.973-1.699,2.637c-1.309,0.781-3.174,1.172-5.596,1.172
		c-4.16,0-7.354-0.41-9.58-1.23c-1.66-0.723-2.49-1.67-2.49-2.842c0-0.352,0.039-1.113,0.117-2.285
		c0.098-1.289,0.146-2.637,0.146-4.043c0-0.586-0.049-1.015-0.146-1.289c-0.078-0.195-0.117-0.439-0.117-0.732
		c0-0.449,0.127-0.674,0.381-0.674c0.137,0,0.264,0.04,0.381,0.117c0.332-0.234,0.84-0.537,1.523-0.908
		C234.785,82.063,235.947,81.731,236.924,81.731z" class="GaOkwpWI_19"></path>
	<path style="fill:none;stroke:#000000;stroke-miterlimit:10;" d="M232.559,84.426c0.254,0.508,0.381,1.124,0.381,1.846
		c0.996-0.625,1.924-1.348,2.783-2.168c0-0.156-0.029-0.234-0.088-0.234c-1.68,0.352-2.656,0.538-2.93,0.557
		C232.666,84.426,232.617,84.426,232.559,84.426z" class="GaOkwpWI_20"></path>
</g>
<g id="圖層_2">
	<path style="fill:none;stroke:#000000;stroke-miterlimit:10;" d="M142.944,110.571c-0.324,0.101-0.612,0.15-0.862,0.15
		s-0.5-0.02-0.75-0.06c-0.325-1.32-0.85-2.34-1.574-3.06h-7.05v7.5l4.237-0.15c0.975-0.02,1.674-0.69,2.1-2.01h1.2v5.94h-1.2
		c-0.125-0.48-0.25-0.84-0.375-1.08c-0.125-0.24-0.344-0.484-0.656-0.735c-0.313-0.25-0.682-0.385-1.106-0.405l-4.2-0.18v7.8h7.987
		c0.75-0.84,1.288-1.969,1.613-3.39c0.3-0.04,0.524-0.06,0.675-0.06c0.149,0,0.425,0.02,0.825,0.06l-0.338,5.13h-17.737l0.225-1.11
		c1.674-0.16,2.825-0.43,3.45-0.81v-16.2c-0.95-0.4-2.175-0.67-3.675-0.81c0.1-0.48,0.162-0.84,0.188-1.08h16.725L142.944,110.571z" class="GaOkwpWI_21"></path>
	<path style="fill:none;stroke:#000000;stroke-miterlimit:10;" d="M158.095,111.742c0.899,0,1.681,0.21,2.344,0.63
		c0.662,0.42,0.993,0.95,0.993,1.59c0,0.64-0.182,1.15-0.544,1.53s-0.8,0.57-1.313,0.57s-0.956-0.085-1.331-0.255
		s-0.612-0.395-0.712-0.675c0.249-0.2,0.375-0.48,0.375-0.84c0-0.6-0.351-0.9-1.051-0.9s-1.406,0.405-2.118,1.215
		c-0.713,0.81-1.069,1.675-1.069,2.595v6.96c0.676,0.36,1.663,0.64,2.963,0.84l-0.15,1.02h-8.625l0.15-1.08
		c1.024-0.14,1.85-0.4,2.475-0.78v-8.55c0-0.74-0.193-1.245-0.581-1.515s-1.068-0.425-2.044-0.465l0.113-0.87
		c0.324-0.04,1.85-0.38,4.574-1.02l0.676,0.27l0.375,2.1C154.919,112.532,156.419,111.742,158.095,111.742z" class="GaOkwpWI_22"></path>
	<path style="fill:none;stroke:#000000;stroke-miterlimit:10;" d="M173.094,106.012c5.725,0,8.588,1.66,8.588,4.98
		c0,2.28-1.463,3.75-4.388,4.41c1.725,0.4,3.062,1.025,4.013,1.875c0.949,0.851,1.425,1.885,1.425,3.105
		c0,1.74-0.757,3.115-2.269,4.125c-1.514,1.01-3.632,1.515-6.356,1.515h-10.875c0.024-0.26,0.087-0.63,0.188-1.11
		c1.449-0.14,2.6-0.41,3.45-0.81v-16.2c-0.876-0.4-2.101-0.67-3.676-0.81l0.188-1.08H173.094z" class="GaOkwpWI_23"></path>
	<path style="fill:none;stroke:#000000;stroke-miterlimit:10;" d="M173.057,107.392c-0.626,0-1.588,0.04-2.888,0.12v7.23h3
		c1.8,0,3.125-0.3,3.975-0.9c0.85-0.6,1.275-1.53,1.275-2.79c0-1.26-0.432-2.185-1.294-2.775
		C176.263,107.687,174.906,107.392,173.057,107.392z" class="GaOkwpWI_24"></path>
	<path style="fill:none;stroke:#000000;stroke-miterlimit:10;" d="M170.169,116.211v8.22c1.475,0.08,2.787,0.12,3.938,0.12
		c3.475,0,5.212-1.38,5.212-4.14c0-1.34-0.519-2.375-1.556-3.105c-1.038-0.73-2.582-1.095-4.632-1.095H170.169z" class="GaOkwpWI_25"></path>
	<path style="fill:none;stroke:#000000;stroke-miterlimit:10;" d="M190.27,118.731v0.15c0,2.44,0.387,4.041,1.162,4.8
		c0.725,0.72,1.875,1.08,3.45,1.08c0.825,0,1.637-0.12,2.438-0.36c0.8-0.24,1.399-0.48,1.8-0.72l0.563-0.33l0.938,0.9
		c-0.175,0.14-0.425,0.32-0.75,0.54c-0.325,0.22-1,0.515-2.024,0.885c-1.025,0.37-2.063,0.555-3.113,0.555
		c-2.85,0-4.881-0.615-6.094-1.845c-1.213-1.23-1.818-3.01-1.818-5.34c0-2.33,0.669-4.129,2.006-5.4
		c1.338-1.27,3.263-1.905,5.775-1.905s4.269,0.52,5.269,1.56c1,1.041,1.538,2.58,1.612,4.62l-0.787,0.81H190.27z" class="GaOkwpWI_26"></path>
	<path style="fill:none;stroke:#000000;stroke-miterlimit:10;" d="M194.507,112.941c-2.75,0-4.162,1.56-4.237,4.68l7.837-0.21
		c0-1.58-0.256-2.72-0.769-3.42S195.882,112.941,194.507,112.941z" class="GaOkwpWI_27"></path>
</g>
<style data-made-with="vivus-instant">.GaOkwpWI_0{stroke-dasharray:131 133;stroke-dashoffset:132;animation:GaOkwpWI_draw 245ms linear 0ms forwards;}.GaOkwpWI_1{stroke-dasharray:63 65;stroke-dashoffset:64;animation:GaOkwpWI_draw 119ms linear 245ms forwards;}.GaOkwpWI_2{stroke-dasharray:66 68;stroke-dashoffset:67;animation:GaOkwpWI_draw 124ms linear 364ms forwards;}.GaOkwpWI_3{stroke-dasharray:74 76;stroke-dashoffset:75;animation:GaOkwpWI_draw 139ms linear 489ms forwards;}.GaOkwpWI_4{stroke-dasharray:50 52;stroke-dashoffset:51;animation:GaOkwpWI_draw 94ms linear 629ms forwards;}.GaOkwpWI_5{stroke-dasharray:11 13;stroke-dashoffset:12;animation:GaOkwpWI_draw 22ms linear 723ms forwards;}.GaOkwpWI_6{stroke-dasharray:117 119;stroke-dashoffset:118;animation:GaOkwpWI_draw 219ms linear 746ms forwards;}.GaOkwpWI_7{stroke-dasharray:47 49;stroke-dashoffset:48;animation:GaOkwpWI_draw 89ms linear 965ms forwards;}.GaOkwpWI_8{stroke-dasharray:97 99;stroke-dashoffset:98;animation:GaOkwpWI_draw 182ms linear 1055ms forwards;}.GaOkwpWI_9{stroke-dasharray:13 15;stroke-dashoffset:14;animation:GaOkwpWI_draw 26ms linear 1237ms forwards;}.GaOkwpWI_10{stroke-dasharray:87 89;stroke-dashoffset:88;animation:GaOkwpWI_draw 163ms linear 1263ms forwards;}.GaOkwpWI_11{stroke-dasharray:80 82;stroke-dashoffset:81;animation:GaOkwpWI_draw 150ms linear 1427ms forwards;}.GaOkwpWI_12{stroke-dasharray:9 11;stroke-dashoffset:10;animation:GaOkwpWI_draw 18ms linear 1578ms forwards;}.GaOkwpWI_13{stroke-dasharray:8 10;stroke-dashoffset:9;animation:GaOkwpWI_draw 16ms linear 1596ms forwards;}.GaOkwpWI_14{stroke-dasharray:90 92;stroke-dashoffset:91;animation:GaOkwpWI_draw 169ms linear 1613ms forwards;}.GaOkwpWI_15{stroke-dasharray:9 11;stroke-dashoffset:10;animation:GaOkwpWI_draw 18ms linear 1782ms forwards;}.GaOkwpWI_16{stroke-dasharray:7 9;stroke-dashoffset:8;animation:GaOkwpWI_draw 14ms linear 1801ms forwards;}.GaOkwpWI_17{stroke-dasharray:19 21;stroke-dashoffset:20;animation:GaOkwpWI_draw 37ms linear 1816ms forwards;}.GaOkwpWI_18{stroke-dasharray:80 82;stroke-dashoffset:81;animation:GaOkwpWI_draw 150ms linear 1853ms forwards;}.GaOkwpWI_19{stroke-dasharray:80 82;stroke-dashoffset:81;animation:GaOkwpWI_draw 150ms linear 2004ms forwards;}.GaOkwpWI_20{stroke-dasharray:9 11;stroke-dashoffset:10;animation:GaOkwpWI_draw 18ms linear 2155ms forwards;}.GaOkwpWI_21{stroke-dasharray:134 136;stroke-dashoffset:135;animation:GaOkwpWI_draw 251ms linear 2173ms forwards;}.GaOkwpWI_22{stroke-dasharray:68 70;stroke-dashoffset:69;animation:GaOkwpWI_draw 128ms linear 2424ms forwards;}.GaOkwpWI_23{stroke-dasharray:84 86;stroke-dashoffset:85;animation:GaOkwpWI_draw 158ms linear 2553ms forwards;}.GaOkwpWI_24{stroke-dasharray:28 30;stroke-dashoffset:29;animation:GaOkwpWI_draw 53ms linear 2711ms forwards;}.GaOkwpWI_25{stroke-dasharray:32 34;stroke-dashoffset:33;animation:GaOkwpWI_draw 61ms linear 2765ms forwards;}.GaOkwpWI_26{stroke-dasharray:69 71;stroke-dashoffset:70;animation:GaOkwpWI_draw 130ms linear 2826ms forwards;}.GaOkwpWI_27{stroke-dasharray:22 24;stroke-dashoffset:23;animation:GaOkwpWI_draw 42ms linear 2957ms forwards;}@keyframes GaOkwpWI_draw{100%{stroke-dashoffset:0;}}@keyframes GaOkwpWI_fade{0%{stroke-opacity:1;}94.44444444444444%{stroke-opacity:1;}100%{stroke-opacity:0;}}</style></svg>
